<svg xmlns="http://www.w3.org/2000/svg" version="1.1" xmlns:xlink="http://www.w3.org/1999/xlink" xmlns:svgjs="http://svgjs.dev/svgjs" width="1000" height="1000" viewBox="0 0 1000 1000"><rect width="1000" height="1000" fill="#ffffff"></rect><g transform="matrix(0.7,0,0,0.7,149.57575757575756,384.3450224359485)"><svg viewBox="0 0 396 131" data-background-color="#ffffff" preserveAspectRatio="xMidYMid meet" height="330" width="1000" xmlns="http://www.w3.org/2000/svg" xmlns:xlink="http://www.w3.org/1999/xlink"><g id="tight-bounds" transform="matrix(1,0,0,1,0.2400000000000091,0.08788770948373781)"><svg viewBox="0 0 395.52 130.82420180872572" height="130.82420180872572" width="395.52"><g><svg viewBox="0 0 630.5017684924924 208.54796369847364" height="130.82420180872572" width="395.52"><g transform="matrix(1,0,0,1,234.98176849249234,61.71186344037292)"><svg viewBox="0 0 395.52 85.12423681772779" height="85.12423681772779" width="395.52"><g><svg viewBox="0 0 395.52 85.12423681772779" height="85.12423681772779" width="395.52" id="textblock"><g><svg viewBox="0 0 395.52 55.98579439252336" height="55.98579439252336" width="395.52"><g transform="matrix(1,0,0,1,0,0)"><svg width="395.52" viewBox="3.1700000762939453 -35.0099983215332 250.77000427246094 35.5" height="55.98579439252336" data-palette-color="#2a160c"><g class="undefined-text-0" data-fill-palette-color="primary" id="text-0"><path d="M3.17 0L15.5-34.69 20.21-34.69 32.54 0 28.34 0 24.83-10.08 10.52-10.08 7.01 0 3.17 0ZM23.56-13.72L17.68-30.64 11.77-13.72 23.56-13.72ZM53.81-35.01L53.81-35.01Q57.81-35.01 62.42-33.62L62.42-33.62 61.08-29.83Q56.69-31.1 53.46-31.1L53.46-31.1Q49.85-31.1 47.35-29.58 44.85-28.05 44.85-25.63L44.85-25.63Q44.85-24.29 45.65-23.24 46.46-22.19 47.78-21.53 49.09-20.87 50.78-20.23 52.46-19.58 54.21-19.04 55.95-18.51 57.64-17.68 59.32-16.85 60.64-15.86 61.96-14.87 62.77-13.28 63.57-11.69 63.57-9.69L63.57-9.69Q63.57-8.3 63.13-6.92 62.69-5.54 61.67-4.19 60.64-2.83 59.13-1.81 57.61-0.78 55.31-0.15 53 0.49 50.17 0.49 47.34 0.49 44.96-0.1 42.58-0.68 39.62-1.86L39.62-1.86 41.04-5.88Q47.14-3.61 50.68-3.61L50.68-3.61Q54.39-3.61 56.72-5.1 59.06-6.59 59.06-9.08L59.06-9.08Q59.06-10.74 58.02-11.95 56.98-13.16 55.33-13.9 53.68-14.65 51.68-15.3 49.68-15.94 47.69-16.69 45.7-17.43 44.05-18.41 42.4-19.38 41.37-21.04 40.33-22.71 40.33-24.95L40.33-24.95Q40.33-26.95 41.29-28.78 42.26-30.62 43.97-31.99 45.68-33.37 48.24-34.19 50.8-35.01 53.81-35.01ZM87.03-35.01L87.03-35.01Q91.04-35.01 95.65-33.62L95.65-33.62 94.31-29.83Q89.91-31.1 86.69-31.1L86.69-31.1Q83.08-31.1 80.57-29.58 78.07-28.05 78.07-25.63L78.07-25.63Q78.07-24.29 78.88-23.24 79.68-22.19 81-21.53 82.32-20.87 84-20.23 85.69-19.58 87.43-19.04 89.18-18.51 90.86-17.68 92.55-16.85 93.87-15.86 95.19-14.87 95.99-13.28 96.8-11.69 96.8-9.69L96.8-9.69Q96.8-8.3 96.36-6.92 95.92-5.54 94.89-4.19 93.87-2.83 92.35-1.81 90.84-0.78 88.53-0.15 86.23 0.49 83.39 0.49 80.56 0.49 78.18-0.1 75.8-0.68 72.85-1.86L72.85-1.86 74.26-5.88Q80.37-3.61 83.91-3.61L83.91-3.61Q87.62-3.61 89.95-5.1 92.28-6.59 92.28-9.08L92.28-9.08Q92.28-10.74 91.24-11.95 90.2-13.16 88.56-13.9 86.91-14.65 84.91-15.3 82.91-15.94 80.92-16.69 78.93-17.43 77.28-18.41 75.63-19.38 74.59-21.04 73.55-22.71 73.55-24.95L73.55-24.95Q73.55-26.95 74.52-28.78 75.48-30.62 77.19-31.99 78.9-33.37 81.46-34.19 84.03-35.01 87.03-35.01ZM127.63 0L107.29 0 107.29-34.69 127.63-34.69 127.63-31.03 111.44-31.03 111.44-19.7 126.29-19.7 126.29-16.04 111.44-16.04 111.44-3.66 127.63-3.66 127.63 0ZM133.61-31.03L133.61-34.69 160.95-34.69 160.95-31.03 149.36-31.03 149.36 0 145.2 0 145.2-31.03 133.61-31.03ZM181.12-35.01L181.12-35.01Q185.12-35.01 189.73-33.62L189.73-33.62 188.39-29.83Q184-31.1 180.77-31.1L180.77-31.1Q177.16-31.1 174.66-29.58 172.16-28.05 172.16-25.63L172.16-25.63Q172.16-24.29 172.96-23.24 173.77-22.19 175.09-21.53 176.4-20.87 178.09-20.23 179.77-19.58 181.52-19.04 183.26-18.51 184.95-17.68 186.63-16.85 187.95-15.86 189.27-14.87 190.08-13.28 190.88-11.69 190.88-9.69L190.88-9.69Q190.88-8.3 190.44-6.92 190-5.54 188.98-4.19 187.95-2.83 186.44-1.81 184.92-0.78 182.62-0.15 180.31 0.49 177.48 0.49 174.65 0.49 172.27-0.1 169.88-0.68 166.93-1.86L166.93-1.86 168.35-5.88Q174.45-3.61 177.99-3.61L177.99-3.61Q181.7-3.61 184.03-5.1 186.36-6.59 186.36-9.08L186.36-9.08Q186.36-10.74 185.33-11.95 184.29-13.16 182.64-13.9 180.99-14.65 178.99-15.3 176.99-15.94 175-16.69 173.01-17.43 171.36-18.41 169.71-19.38 168.68-21.04 167.64-22.71 167.64-24.95L167.64-24.95Q167.64-26.95 168.6-28.78 169.57-30.62 171.28-31.99 172.99-33.37 175.55-34.19 178.11-35.01 181.12-35.01ZM198.69 0L198.69-5.13 203.82-5.13 203.82 0 198.69 0ZM211.38 0L223.71-34.69 228.42-34.69 240.75 0 236.55 0 233.04-10.08 218.73-10.08 215.22 0 211.38 0ZM231.77-13.72L225.89-30.64 219.98-13.72 231.77-13.72ZM249.78 0L249.78-34.69 253.94-34.69 253.94 0 249.78 0Z" fill="#2a160c" data-fill-palette-color="primary"></path></g></svg></g></svg></g><g transform="matrix(1,0,0,1,0,69.20269678953271)"><svg viewBox="0 0 232.209792 15.921540028195087" height="15.921540028195087" width="232.209792"><g transform="matrix(1,0,0,1,0,0)"><svg width="232.209792" viewBox="1.2000000476837158 -36.400001525878906 702.1599731445312 48.150001525878906" height="15.921540028195087" data-palette-color="#111111"><path d="M5 0L1.2 0 10.7-34.6 19.1-34.6 28.6 0 24.8 0 22.3-8.9 7.5-8.9 5 0ZM16.2-31.3L13.6-31.3 8.35-12.35 21.45-12.35 16.2-31.3ZM52.25-22.15L52.25-22.15Q46.8-22.15 46.8-18.35L46.8-18.35Q46.8-16.6 48.05-15.88 49.3-15.15 53.75-14.38 58.2-13.6 60.05-12.2 61.9-10.8 61.9-6.95 61.9-3.1 59.42-1.3 56.95 0.5 52.2 0.5L52.2 0.5Q49.09 0.5 44.9-0.2L44.9-0.2 43.4-0.45 43.59-3.7Q49.3-2.85 52.2-2.85 55.09-2.85 56.62-3.78 58.15-4.7 58.15-6.88 58.15-9.05 56.84-9.83 55.55-10.6 51.15-11.3 46.75-12 44.9-13.35 43.05-14.7 43.05-18.35 43.05-22 45.62-23.75 48.2-25.5 52.05-25.5L52.05-25.5Q55.09-25.5 59.7-24.8L59.7-24.8 61.09-24.55 61-21.35Q55.45-22.15 52.25-22.15ZM71.39 0L67.64 0 67.64-25 71.39-25 71.39 0ZM71.39-30.65L67.64-30.65 67.64-35 71.39-35 71.39-30.65ZM91.54-25L91.54-21.75 83.59-21.75 83.59-9.8Q83.59-5.5 84.22-4.15 84.84-2.8 87.19-2.8L87.19-2.8 91.64-3.1 91.89 0Q88.54 0.55 86.79 0.55L86.79 0.55Q82.89 0.55 81.39-1.35 79.89-3.25 79.89-8.6L79.89-8.6 79.89-21.75 76.34-21.75 76.34-25 79.89-25 79.89-32.65 83.59-32.65 83.59-25 91.54-25ZM113.14-3.1L113.14-3.1 114.59-3.25 114.69-0.3Q108.99 0.5 104.94 0.5L104.94 0.5Q99.54 0.5 97.29-2.63 95.04-5.75 95.04-12.35L95.04-12.35Q95.04-25.5 105.49-25.5L105.49-25.5Q110.54-25.5 113.04-22.68 115.54-19.85 115.54-13.8L115.54-13.8 115.34-10.95 98.84-10.95Q98.84-6.8 100.34-4.8 101.84-2.8 105.56-2.8 109.29-2.8 113.14-3.1ZM98.79-13.95L111.79-13.95Q111.79-18.55 110.31-20.45 108.84-22.35 105.51-22.35 102.19-22.35 100.51-20.35 98.84-18.35 98.79-13.95L98.79-13.95ZM144.43-21.75L137.18-21.75 137.18 0 133.43 0 133.43-21.75 130.28-21.75 130.28-25 133.43-25 133.43-27.25Q133.43-32.55 134.93-34.48 136.43-36.4 140.18-36.4L140.18-36.4 145.23-36.05 145.18-32.95Q142.38-33.05 140.56-33.05 138.73-33.05 137.96-31.85 137.18-30.65 137.18-27.2L137.18-27.2 137.18-25 144.43-25 144.43-21.75ZM147.38-12.55Q147.38-19.4 149.83-22.45 152.28-25.5 158.11-25.5 163.93-25.5 166.36-22.45 168.78-19.4 168.78-12.55 168.78-5.7 166.48-2.6 164.18 0.5 158.08 0.5 151.98 0.5 149.68-2.6 147.38-5.7 147.38-12.55ZM151.23-12.63Q151.23-7.15 152.56-4.95 153.88-2.75 158.11-2.75 162.33-2.75 163.63-4.93 164.93-7.1 164.93-12.6 164.93-18.1 163.48-20.18 162.03-22.25 158.11-22.25 154.18-22.25 152.71-20.18 151.23-18.1 151.23-12.63ZM178.63 0L174.88 0 174.88-25 178.58-25 178.58-21.6Q182.93-24.6 187.73-25.55L187.73-25.55 187.73-21.75Q185.63-21.35 183.35-20.5 181.08-19.65 179.88-19L179.88-19 178.63-18.35 178.63 0ZM220.82-17.45L220.82-17.45 220.82-4.65Q220.97-2.8 223.72-2.45L223.72-2.45 223.57 0.5Q219.62 0.5 217.62-1.5L217.62-1.5Q213.12 0.5 208.62 0.5L208.62 0.5Q205.17 0.5 203.37-1.45 201.57-3.4 201.57-7.05 201.57-10.7 203.42-12.43 205.27-14.15 209.22-14.55L209.22-14.55 217.07-15.3 217.07-17.45Q217.07-20 215.97-21.1 214.87-22.2 212.97-22.2L212.97-22.2Q208.97-22.2 204.67-21.7L204.67-21.7 203.12-21.55 202.97-24.4Q208.47-25.5 212.72-25.5 216.97-25.5 218.9-23.55 220.82-21.6 220.82-17.45ZM205.42-7.25L205.42-7.25Q205.42-2.65 209.22-2.65L209.22-2.65Q212.62-2.65 215.92-3.8L215.92-3.8 217.07-4.2 217.07-12.45 209.67-11.75Q207.42-11.55 206.42-10.45 205.42-9.35 205.42-7.25ZM232.27 0L228.52 0 228.52-35.9 232.27-35.9 232.27 0ZM243.82 0L240.07 0 240.07-35.9 243.82-35.9 243.82 0ZM267.06 0L259.96-25 263.71-25 269.96-3.25 271.61-3.25 277.91-25 281.66-25 271.26 11.1 267.51 11.1 270.76 0 267.06 0ZM284.91-12.55Q284.91-19.4 287.36-22.45 289.81-25.5 295.64-25.5 301.46-25.5 303.89-22.45 306.31-19.4 306.31-12.55 306.31-5.7 304.01-2.6 301.71 0.5 295.61 0.5 289.51 0.5 287.21-2.6 284.91-5.7 284.91-12.55ZM288.76-12.63Q288.76-7.15 290.09-4.95 291.41-2.75 295.64-2.75 299.86-2.75 301.16-4.93 302.46-7.1 302.46-12.6 302.46-18.1 301.01-20.18 299.56-22.25 295.64-22.25 291.71-22.25 290.24-20.18 288.76-18.1 288.76-12.63ZM328.01-4.7L328.01-25 331.76-25 331.76 0 328.01 0 328.01-1.75Q324.26 0.5 320.61 0.5L320.61 0.5Q315.51 0.5 313.83-2.15 312.16-4.8 312.16-11.95L312.16-11.95 312.16-25 315.91-25 315.91-12Q315.91-6.55 316.86-4.7 317.81-2.85 321.16-2.85L321.16-2.85Q322.81-2.85 324.51-3.33 326.21-3.8 327.11-4.25L327.11-4.25 328.01-4.7ZM342.71 0L338.96 0 338.96-25 342.66-25 342.66-21.6Q347.01-24.6 351.81-25.55L351.81-25.55 351.81-21.75Q349.71-21.35 347.43-20.5 345.16-19.65 343.96-19L343.96-19 342.71-18.35 342.71 0ZM384.9-17.45L384.9-17.45 384.9-4.65Q385.05-2.8 387.8-2.45L387.8-2.45 387.65 0.5Q383.7 0.5 381.7-1.5L381.7-1.5Q377.2 0.5 372.7 0.5L372.7 0.5Q369.25 0.5 367.45-1.45 365.65-3.4 365.65-7.05 365.65-10.7 367.5-12.43 369.35-14.15 373.3-14.55L373.3-14.55 381.15-15.3 381.15-17.45Q381.15-20 380.05-21.1 378.95-22.2 377.05-22.2L377.05-22.2Q373.05-22.2 368.75-21.7L368.75-21.7 367.2-21.55 367.05-24.4Q372.55-25.5 376.8-25.5 381.05-25.5 382.98-23.55 384.9-21.6 384.9-17.45ZM369.5-7.25L369.5-7.25Q369.5-2.65 373.3-2.65L373.3-2.65Q376.7-2.65 380-3.8L380-3.8 381.15-4.2 381.15-12.45 373.75-11.75Q371.5-11.55 370.5-10.45 369.5-9.35 369.5-7.25ZM400.15-22.15L400.15-22.15Q394.7-22.15 394.7-18.35L394.7-18.35Q394.7-16.6 395.95-15.88 397.2-15.15 401.65-14.38 406.1-13.6 407.95-12.2 409.8-10.8 409.8-6.95 409.8-3.1 407.32-1.3 404.85 0.5 400.1 0.5L400.1 0.5Q397 0.5 392.8-0.2L392.8-0.2 391.3-0.45 391.5-3.7Q397.2-2.85 400.1-2.85 403-2.85 404.52-3.78 406.05-4.7 406.05-6.88 406.05-9.05 404.75-9.83 403.45-10.6 399.05-11.3 394.65-12 392.8-13.35 390.95-14.7 390.95-18.35 390.95-22 393.52-23.75 396.1-25.5 399.95-25.5L399.95-25.5Q403-25.5 407.6-24.8L407.6-24.8 409-24.55 408.9-21.35Q403.35-22.15 400.15-22.15ZM423.4-22.15L423.4-22.15Q417.95-22.15 417.95-18.35L417.95-18.35Q417.95-16.6 419.2-15.88 420.45-15.15 424.9-14.38 429.35-13.6 431.2-12.2 433.05-10.8 433.05-6.95 433.05-3.1 430.57-1.3 428.1 0.5 423.35 0.5L423.35 0.5Q420.25 0.5 416.05-0.2L416.05-0.2 414.55-0.45 414.75-3.7Q420.45-2.85 423.35-2.85 426.25-2.85 427.77-3.78 429.3-4.7 429.3-6.88 429.3-9.05 428-9.83 426.7-10.6 422.3-11.3 417.9-12 416.05-13.35 414.2-14.7 414.2-18.35 414.2-22 416.77-23.75 419.35-25.5 423.2-25.5L423.2-25.5Q426.25-25.5 430.85-24.8L430.85-24.8 432.25-24.55 432.15-21.35Q426.6-22.15 423.4-22.15ZM455.79-3.1L455.79-3.1 457.24-3.25 457.34-0.3Q451.64 0.5 447.59 0.5L447.59 0.5Q442.19 0.5 439.94-2.63 437.69-5.75 437.69-12.35L437.69-12.35Q437.69-25.5 448.14-25.5L448.14-25.5Q453.19-25.5 455.69-22.68 458.19-19.85 458.19-13.8L458.19-13.8 457.99-10.95 441.49-10.95Q441.49-6.8 442.99-4.8 444.49-2.8 448.22-2.8 451.94-2.8 455.79-3.1ZM441.44-13.95L454.44-13.95Q454.44-18.55 452.97-20.45 451.49-22.35 448.17-22.35 444.84-22.35 443.17-20.35 441.49-18.35 441.44-13.95L441.44-13.95ZM476.84-25L476.84-21.75 468.89-21.75 468.89-9.8Q468.89-5.5 469.52-4.15 470.14-2.8 472.49-2.8L472.49-2.8 476.94-3.1 477.19 0Q473.84 0.55 472.09 0.55L472.09 0.55Q468.19 0.55 466.69-1.35 465.19-3.25 465.19-8.6L465.19-8.6 465.19-21.75 461.64-21.75 461.64-25 465.19-25 465.19-32.65 468.89-32.65 468.89-25 476.84-25ZM484.69-23.5L481.34-23.5 481.19-34.6 484.94-34.6 484.69-23.5ZM499.44-22.15L499.44-22.15Q493.99-22.15 493.99-18.35L493.99-18.35Q493.99-16.6 495.24-15.88 496.49-15.15 500.94-14.38 505.39-13.6 507.24-12.2 509.09-10.8 509.09-6.95 509.09-3.1 506.61-1.3 504.14 0.5 499.39 0.5L499.39 0.5Q496.29 0.5 492.09-0.2L492.09-0.2 490.59-0.45 490.79-3.7Q496.49-2.85 499.39-2.85 502.29-2.85 503.81-3.78 505.34-4.7 505.34-6.88 505.34-9.05 504.04-9.83 502.74-10.6 498.34-11.3 493.94-12 492.09-13.35 490.24-14.7 490.24-18.35 490.24-22 492.81-23.75 495.39-25.5 499.24-25.5L499.24-25.5Q502.29-25.5 506.89-24.8L506.89-24.8 508.29-24.55 508.19-21.35Q502.64-22.15 499.44-22.15ZM542.83-3.1L542.83-3.1 544.28-3.25 544.38-0.3Q538.68 0.5 534.63 0.5L534.63 0.5Q529.23 0.5 526.98-2.63 524.73-5.75 524.73-12.35L524.73-12.35Q524.73-25.5 535.18-25.5L535.18-25.5Q540.23-25.5 542.73-22.68 545.23-19.85 545.23-13.8L545.23-13.8 545.03-10.95 528.53-10.95Q528.53-6.8 530.03-4.8 531.53-2.8 535.26-2.8 538.98-2.8 542.83-3.1ZM528.48-13.95L541.48-13.95Q541.48-18.55 540.01-20.45 538.53-22.35 535.21-22.35 531.88-22.35 530.21-20.35 528.53-18.35 528.48-13.95L528.48-13.95ZM556.23-12.5L548.38-25 552.48-25 558.58-15.2 564.68-25 568.78-25 560.83-12.6 568.73 0 564.63 0 558.58-9.75 552.48 0 548.38 0 556.23-12.5ZM577.23 0L573.48 0 573.48-25 577.23-25 577.23 0ZM577.23-30.65L573.48-30.65 573.48-35 577.23-35 577.23-30.65ZM594.07 11.75L594.07 11.75Q588.07 11.75 585.7 10.13 583.32 8.5 583.32 4.2L583.32 4.2Q583.32 2.15 584.22 0.88 585.12-0.4 587.27-2L587.27-2Q585.87-2.95 585.87-5.45L585.87-5.45Q585.87-6.3 587.12-8.6L587.12-8.6 587.57-9.4Q583.62-11.2 583.62-16.95L583.62-16.95Q583.62-25.5 592.97-25.5L592.97-25.5Q595.37-25.5 597.42-25L597.42-25 598.17-24.85 605.57-25.05 605.57-21.85 600.82-21.95Q602.47-20.3 602.47-16.95L602.47-16.95Q602.47-12.25 600.15-10.38 597.82-8.5 592.82-8.5L592.82-8.5Q591.47-8.5 590.37-8.7L590.37-8.7Q589.47-6.5 589.47-5.85L589.47-5.85Q589.47-4.3 590.42-3.93 591.37-3.55 596.17-3.55 600.97-3.55 603.07-2.05 605.17-0.55 605.17 3.8L605.17 3.8Q605.17 11.75 594.07 11.75ZM587.02 3.9L587.02 3.9Q587.02 6.55 588.5 7.58 589.97 8.6 593.95 8.6 597.92 8.6 599.65 7.5 601.37 6.4 601.37 3.83 601.37 1.25 600.12 0.5 598.87-0.25 595.22-0.25L595.22-0.25 589.82-0.5Q588.17 0.7 587.6 1.6 587.02 2.5 587.02 3.9ZM587.37-16.95Q587.37-14 588.7-12.75 590.02-11.5 593.07-11.5 596.12-11.5 597.42-12.75 598.72-14 598.72-16.98 598.72-19.95 597.42-21.2 596.12-22.45 593.07-22.45 590.02-22.45 588.7-21.18 587.37-19.9 587.37-16.95ZM627.12-3.1L627.12-3.1 628.57-3.25 628.67-0.3Q622.97 0.5 618.92 0.5L618.92 0.5Q613.52 0.5 611.27-2.63 609.02-5.75 609.02-12.35L609.02-12.35Q609.02-25.5 619.47-25.5L619.47-25.5Q624.52-25.5 627.02-22.68 629.52-19.85 629.52-13.8L629.52-13.8 629.32-10.95 612.82-10.95Q612.82-6.8 614.32-4.8 615.82-2.8 619.54-2.8 623.27-2.8 627.12-3.1ZM612.77-13.95L625.77-13.95Q625.77-18.55 624.29-20.45 622.82-22.35 619.5-22.35 616.17-22.35 614.5-20.35 612.82-18.35 612.77-13.95L612.77-13.95ZM639.12-20.3L639.12 0 635.37 0 635.37-25 639.07-25 639.07-23.25Q643.12-25.5 646.82-25.5L646.82-25.5Q651.82-25.5 653.54-22.8 655.27-20.1 655.27-13.2L655.27-13.2 655.27 0 651.57 0 651.57-13.1Q651.57-18.3 650.54-20.23 649.52-22.15 646.17-22.15L646.17-22.15Q644.57-22.15 642.79-21.68 641.02-21.2 640.07-20.75L640.07-20.75 639.12-20.3ZM671.56-25.5L671.56-25.5Q673.21-25.5 677.16-24.9L677.16-24.9 678.36-24.75 678.21-21.7Q674.21-22.15 672.31-22.15L672.31-22.15Q668.06-22.15 666.54-20.13 665.01-18.1 665.01-12.63 665.01-7.15 666.44-5 667.86-2.85 672.36-2.85L672.36-2.85 678.26-3.3 678.41-0.2Q673.76 0.5 671.46 0.5L671.46 0.5Q665.61 0.5 663.39-2.5 661.16-5.5 661.16-12.63 661.16-19.75 663.56-22.63 665.96-25.5 671.56-25.5ZM688.76 0L681.66-25 685.41-25 691.66-3.25 693.31-3.25 699.61-25 703.36-25 692.96 11.1 689.21 11.1 692.46 0 688.76 0Z" opacity="1" transform="matrix(1,0,0,1,0,0)" fill="#111111" class="undefined-text-1" data-fill-palette-color="secondary" id="text-1"></path></svg></g></svg></g></svg></g></svg></g><g><svg viewBox="0 0 208.54796369847364 208.54796369847364" height="208.54796369847364" width="208.54796369847364"><g><svg></svg></g><g id="icon-0"><svg viewBox="0 0 208.54796369847364 208.54796369847364" height="208.54796369847364" width="208.54796369847364"><g><path d="M0 104.274c0-57.589 46.685-104.274 104.274-104.274 57.589 0 104.274 46.685 104.274 104.274 0 57.589-46.685 104.274-104.274 104.274-57.589 0-104.274-46.685-104.274-104.274zM104.274 203.499c54.801 0 99.225-44.425 99.225-99.225 0-54.801-44.425-99.225-99.225-99.225-54.801 0-99.225 44.425-99.225 99.225 0 54.801 44.425 99.225 99.225 99.225z" data-fill-palette-color="accent" fill="#111111" stroke="transparent"></path></g><g transform="matrix(1,0,0,1,44.803870120615215,42.753176612731714)"><svg viewBox="0 0 118.9402234572432 123.04161047301021" height="123.04161047301021" width="118.9402234572432"><g><svg xmlns="http://www.w3.org/2000/svg" data-name="Layer 1" viewBox="4 2 58 60" x="0" y="0" height="123.04161047301021" width="118.9402234572432" class="icon-s-0" data-fill-palette-color="accent" id="s-0"><path d="M46 30A16 16 0 1 0 62 46 16 16 0 0 0 46 30ZM41 51H39v3H37V51H35V41h2V38h2v3h2Zm8 2H47v4H45V53H43V46h2V43h2v3h2Zm8-6H55v3H53V47H51V39h2V37h2v2h2Z" fill="#111111" data-fill-palette-color="accent"></path><polygon points="37 18 34 23 48 23 45 18 37 18" fill="#111111" data-fill-palette-color="accent"></polygon><polygon points="27 18 19 18 16 23 30 23 27 18" fill="#111111" data-fill-palette-color="accent"></polygon><polygon points="28 9 25 14 39 14 36 9 28 9" fill="#111111" data-fill-palette-color="accent"></polygon><rect x="9" y="20" width="3" height="2" fill="#111111" data-fill-palette-color="accent"></rect><rect x="52" y="20" width="3" height="2" fill="#111111" data-fill-palette-color="accent"></rect><rect x="15.5045" y="5.25211" width="1.99979" height="2.99968" transform="translate(0.05967 13.64797) rotate(-45)" fill="#111111" data-fill-palette-color="accent"></rect><rect x="45.99577" y="6.24815" width="2.99968" height="1.99979" transform="translate(8.786 35.70737) rotate(-45)" fill="#111111" data-fill-palette-color="accent"></rect><rect x="31" y="2" width="2" height="3" fill="#111111" data-fill-palette-color="accent"></rect><path d="M4 45.597C5.416 46.926 8.506 47.875 12 47.875s6.584-0.949 8-2.278V41.95a15.222 15.222 0 0 1-8 1.925A15.222 15.222 0 0 1 4 41.95Z" fill="#111111" data-fill-palette-color="accent"></path><path d="M4 55.597C5.416 56.926 8.506 57.875 12 57.875s6.584-0.949 8-2.278V51.95a15.222 15.222 0 0 1-8 1.925A15.222 15.222 0 0 1 4 51.95Z" fill="#111111" data-fill-palette-color="accent"></path><path d="M4 50.597C5.416 51.926 8.506 52.875 12 52.875s6.584-0.949 8-2.278V46.95a15.222 15.222 0 0 1-8 1.925A15.222 15.222 0 0 1 4 46.95Z" fill="#111111" data-fill-palette-color="accent"></path><path d="M4 57.625C4 60.041 7.582 62 12 62s8-1.959 8-4.375V56.95a15.222 15.222 0 0 1-8 1.925A15.222 15.222 0 0 1 4 56.95Z" fill="#111111" data-fill-palette-color="accent"></path><path d="M4.685 36.24C5.434 37.796 8.477 39 12 39s6.566-1.204 7.315-2.76a0.965 0.965 0 0 0-0.24-1.099C17.737 33.869 15.075 33 12 33s-5.737 0.869-7.075 2.141A0.965 0.965 0 0 0 4.685 36.24Z" fill="#111111" data-fill-palette-color="accent"></path><path d="M4 37.035v3.562C5.416 41.926 8.506 42.875 12 42.875s6.584-0.949 8-2.278V37.035C18.838 38.78 15.742 40 12 40S5.162 38.78 4 37.035Z" fill="#111111" data-fill-palette-color="accent"></path></svg></g></svg></g></svg></g></svg></g></svg></g><defs></defs></svg><rect width="395.52" height="130.82420180872572" fill="none" stroke="none" visibility="hidden"></rect></g></svg></g></svg>